<?xml version="1.0" standalone="no"?>
<!DOCTYPE svg PUBLIC "-//W3C//DTD SVG 20010904//EN"
 "http://www.w3.org/TR/2001/REC-SVG-20010904/DTD/svg10.dtd">
<svg version="1.0" xmlns="http://www.w3.org/2000/svg"
 width="512.000000pt" height="512.000000pt" viewBox="0 0 512.000000 512.000000"
 preserveAspectRatio="xMidYMid meet">

<g transform="translate(0.000000,512.000000) scale(0.100000,-0.100000)"
fill="#000000" stroke="none">
<path d="M44 4881 c-2 -2 -4 -904 -4 -2003 l0 -1998 1058 -2 c1196 -3 1262 -3
1426 12 113 11 315 56 449 101 135 45 451 211 488 255 10 12 -84 14 -642 14
-360 1 -683 5 -719 10 -133 19 -339 69 -363 88 -7 5 -23 13 -37 17 -38 12
-173 75 -190 90 -8 7 -37 25 -65 40 -121 66 -320 248 -428 390 -104 138 -163
245 -226 405 -183 474 -133 1004 138 1436 78 125 112 167 219 279 178 186 410
330 658 410 225 72 176 68 952 72 386 2 702 8 702 12 0 27 -313 199 -438 241
-35 11 -71 25 -80 30 -24 13 -114 37 -224 59 -193 40 -308 43 -1511 45 -637 0
-1161 -1 -1163 -3z"/>
<path d="M2140 4260 c-135 -21 -192 -33 -255 -52 -38 -11 -74 -24 -80 -28 -5
-4 -25 -11 -43 -15 -18 -3 -47 -13 -65 -22 -76 -36 -117 -58 -117 -65 0 -5 -7
-8 -16 -8 -10 0 -42 -16 -72 -36 -41 -28 -51 -39 -41 -46 10 -7 8 -8 -8 -3
-13 3 -25 1 -30 -7 -4 -7 -27 -26 -50 -41 -39 -27 -58 -52 -54 -70 1 -5 -2 -6
-7 -3 -23 14 -170 -171 -230 -289 -58 -114 -91 -197 -109 -270 -28 -120 -32
-142 -44 -291 -11 -130 -10 -174 4 -320 9 -93 21 -182 26 -199 6 -16 20 -62
31 -101 12 -39 27 -80 35 -90 8 -11 15 -26 15 -35 0 -19 80 -173 91 -177 5 -2
16 -19 25 -38 9 -19 36 -55 60 -81 24 -25 44 -48 44 -50 0 -4 19 -22 124 -113
52 -45 119 -90 134 -90 7 0 12 -5 12 -10 0 -6 37 -28 82 -49 125 -58 150 -69
183 -77 17 -4 35 -10 40 -14 6 -5 28 -11 50 -15 22 -4 48 -12 57 -16 9 -5 72
-17 140 -26 104 -14 235 -17 841 -20 l717 -4 33 37 c17 20 39 48 47 63 8 15
26 38 39 51 13 14 30 36 39 50 9 14 22 29 29 33 7 4 13 13 13 20 0 6 12 21 28
34 l27 22 -845 1 c-833 1 -916 4 -1035 33 -126 32 -164 46 -250 90 -48 26 -93
44 -99 40 -6 -3 -8 -3 -4 2 4 4 -27 35 -70 69 -70 55 -93 78 -128 125 -10 13
-14 13 -28 2 -9 -8 -16 -9 -16 -3 0 6 6 12 13 15 8 3 5 12 -10 29 -13 13 -23
28 -23 33 0 5 -6 16 -14 24 -7 9 -24 36 -37 61 -13 25 -29 50 -35 55 -11 10
-18 30 -50 155 -9 36 -20 74 -25 85 -4 11 -13 73 -20 138 -9 92 -9 146 1 250
7 72 16 137 20 142 4 6 11 28 14 50 10 54 49 163 75 205 11 19 26 46 33 60 13
27 67 101 81 111 4 3 5 13 2 21 -4 9 -2 19 4 23 7 4 8 -1 4 -12 -4 -10 18 6
47 36 60 59 163 141 178 141 5 0 17 9 27 20 10 11 24 20 32 20 7 0 13 5 13 10
0 6 6 10 13 10 6 0 35 11 62 25 28 13 59 25 71 25 11 0 24 4 30 10 11 11 118
39 194 50 30 5 439 9 907 9 l853 1 -47 63 c-58 76 -57 74 -94 117 -17 19 -39
46 -48 60 -9 14 -25 35 -35 47 l-20 23 -720 -1 c-397 -1 -741 -5 -766 -9z m79
-24 c-2 -2 -17 -6 -34 -10 -22 -5 -26 -4 -15 4 14 9 59 15 49 6z m-379 -76 c0
-5 -10 -10 -22 -9 -22 0 -22 1 -3 9 11 5 21 9 23 9 1 1 2 -3 2 -9z m1856 -57
c-7 -7 -26 7 -26 19 0 6 6 6 15 -2 9 -7 13 -15 11 -17z m-1982 2 c-4 -8 -8
-15 -10 -15 -2 0 -4 7 -4 15 0 8 4 15 10 15 5 0 7 -7 4 -15z m-154 -65 c0 -5
-5 -10 -11 -10 -5 0 -7 5 -4 10 3 6 8 10 11 10 2 0 4 -4 4 -10z m10 -30 c0 -5
-5 -10 -11 -10 -5 0 -7 5 -4 10 3 6 8 10 11 10 2 0 4 -4 4 -10z m2250 -11 c0
-5 -4 -9 -10 -9 -5 0 -10 7 -10 16 0 8 5 12 10 9 6 -3 10 -10 10 -16z m-2045
-69 c-3 -5 -14 -10 -23 -10 -15 0 -15 2 -2 10 20 13 33 13 25 0z m45 -20 c0
-5 -5 -10 -11 -10 -5 0 -7 5 -4 10 3 6 8 10 11 10 2 0 4 -4 4 -10z m-440 -14
c0 -3 -4 -8 -10 -11 -5 -3 -10 -1 -10 4 0 6 5 11 10 11 6 0 10 -2 10 -4z m310
-56 c0 -5 -4 -10 -9 -10 -5 0 -18 -3 -28 -6 -16 -6 -16 -5 2 9 23 19 35 21 35
7z m-435 -89 c-2 -2 -11 3 -19 12 -8 8 -12 17 -9 21 3 3 12 -2 19 -12 7 -9 11
-19 9 -21z m186 -38 c-12 -20 -14 -14 -5 12 4 9 9 14 11 11 3 -2 0 -13 -6 -23z
m-325 -129 c-4 -9 -9 -15 -11 -12 -3 3 -3 13 1 22 4 9 9 15 11 12 3 -3 3 -13
-1 -22z m44 -54 c0 -5 -4 -10 -10 -10 -5 0 -10 5 -10 10 0 6 5 10 10 10 6 0
10 -4 10 -10z m180 -70 c0 -5 -4 -10 -10 -10 -5 0 -10 5 -10 10 0 6 5 10 10
10 6 0 10 -4 10 -10z m-308 -52 c-7 -7 -12 -8 -12 -2 0 14 12 26 19 19 2 -3
-1 -11 -7 -17z m-15 -70 c-3 -7 -5 -2 -5 12 0 14 2 19 5 13 2 -7 2 -19 0 -25z
m-12 -36 c-8 -8 -25 10 -25 26 0 13 2 13 14 -4 8 -10 13 -21 11 -22z m232 -64
c-3 -8 -6 -5 -6 6 -1 11 2 17 5 13 3 -3 4 -12 1 -19z m-17 -659 c0 -5 -4 -9
-10 -9 -5 0 -10 7 -10 16 0 8 5 12 10 9 6 -3 10 -10 10 -16z m-193 -101 c-3
-8 -6 -5 -6 6 -1 11 2 17 5 13 3 -3 4 -12 1 -19z m1 -109 c-3 -8 -7 -3 -11 10
-4 17 -3 21 5 13 5 -5 8 -16 6 -23z m117 -209 c3 -5 1 -10 -4 -10 -6 0 -11 5
-11 10 0 6 2 10 4 10 3 0 8 -4 11 -10z m-9 -47 c-7 -7 -26 7 -26 19 0 6 6 6
15 -2 9 -7 13 -15 11 -17z m144 -64 c0 -6 -4 -7 -10 -4 -5 3 -10 11 -10 16 0
6 5 7 10 4 6 -3 10 -11 10 -16z m-90 1 c0 -5 -2 -10 -4 -10 -3 0 -8 5 -11 10
-3 6 -1 10 4 10 6 0 11 -4 11 -10z m390 -30 c0 -5 -2 -10 -4 -10 -3 0 -8 5
-11 10 -3 6 -1 10 4 10 6 0 11 -4 11 -10z m-356 -16 c10 -25 -1 -29 -14 -5 -6
12 -7 21 -1 21 5 0 12 -7 15 -16z m316 6 c0 -5 -2 -10 -4 -10 -3 0 -8 5 -11
10 -3 6 -1 10 4 10 6 0 11 -4 11 -10z m-160 -76 c0 -8 -5 -12 -10 -9 -6 4 -8
11 -5 16 9 14 15 11 15 -7z m280 -23 c0 -5 -9 -11 -21 -14 -16 -4 -18 -3 -8 9
13 16 29 19 29 5z m75 -1 c3 -5 -1 -10 -9 -10 -9 0 -16 5 -16 10 0 6 4 10 9
10 6 0 13 -4 16 -10z m55 -20 c0 -5 -5 -10 -11 -10 -5 0 -7 5 -4 10 3 6 8 10
11 10 2 0 4 -4 4 -10z m-100 -4 c0 -2 -7 -9 -15 -16 -13 -11 -14 -10 -9 4 5
14 24 23 24 12z m-240 -66 c8 -5 11 -10 5 -10 -5 0 -17 5 -25 10 -8 5 -10 10
-5 10 6 0 17 -5 25 -10z m47 4 c-3 -3 -12 -4 -19 -1 -8 3 -5 6 6 6 11 1 17 -2
13 -5z m571 -31 c-10 -2 -26 -2 -35 0 -10 3 -2 5 17 5 19 0 27 -2 18 -5z
m-618 -13 c0 -5 -2 -10 -4 -10 -3 0 -8 5 -11 10 -3 6 -1 10 4 10 6 0 11 -4 11
-10z m685 0 c3 -5 2 -10 -4 -10 -5 0 -13 5 -16 10 -3 6 -2 10 4 10 5 0 13 -4
16 -10z m1688 -14 c-10 -13 -20 -22 -22 -20 -4 4 29 44 36 44 2 0 -4 -11 -14
-24z m-2336 -8 c-3 -8 -6 -5 -6 6 -1 11 2 17 5 13 3 -3 4 -12 1 -19z m2179
-143 c17 -16 14 -18 -10 -9 -9 3 -16 10 -16 15 0 13 9 11 26 -6z m-1759 -41
c-3 -3 -12 -4 -19 -1 -8 3 -5 6 6 6 11 1 17 -2 13 -5z"/>
<path d="M4705 3090 c-58 -30 -80 -51 -104 -98 -51 -99 -36 -198 41 -275 57
-57 82 -68 163 -68 76 -1 118 16 171 70 98 98 80 279 -35 355 -37 25 -57 30
-120 33 -63 4 -83 1 -116 -17z"/>
</g>
</svg>
